<svg id="visual" viewBox="0 0 900 675" width="900" height="675" xmlns="http://www.w3.org/2000/svg" xmlns:xlink="http://www.w3.org/1999/xlink" version="1.1"><rect x="0" y="0" width="900" height="675" fill="#121810"></rect><path d="M0 257L21.5 257.5C43 258 86 259 128.8 248.5C171.7 238 214.3 216 257.2 214.3C300 212.7 343 231.3 385.8 236.2C428.7 241 471.3 232 514.2 233.8C557 235.7 600 248.3 642.8 243.3C685.7 238.3 728.3 215.7 771.2 204.5C814 193.3 857 193.7 878.5 193.8L900 194L900 0L878.5 0C857 0 814 0 771.2 0C728.3 0 685.7 0 642.8 0C600 0 557 0 514.2 0C471.3 0 428.7 0 385.8 0C343 0 300 0 257.2 0C214.3 0 171.7 0 128.8 0C86 0 43 0 21.5 0L0 0Z" fill="#616244"></path><path d="M0 191L21.5 187C43 183 86 175 128.8 174.3C171.7 173.7 214.3 180.3 257.2 180C300 179.7 343 172.3 385.8 175.3C428.7 178.3 471.3 191.7 514.2 188.5C557 185.3 600 165.7 642.8 159.7C685.7 153.7 728.3 161.3 771.2 171.2C814 181 857 193 878.5 199L900 205L900 0L878.5 0C857 0 814 0 771.2 0C728.3 0 685.7 0 642.8 0C600 0 557 0 514.2 0C471.3 0 428.7 0 385.8 0C343 0 300 0 257.2 0C214.3 0 171.7 0 128.8 0C86 0 43 0 21.5 0L0 0Z" fill="#555838"></path><path d="M0 151L21.5 153.3C43 155.7 86 160.3 128.8 157.7C171.7 155 214.3 145 257.2 145.8C300 146.7 343 158.3 385.8 161.3C428.7 164.3 471.3 158.7 514.2 159.7C557 160.7 600 168.3 642.8 160C685.7 151.7 728.3 127.3 771.2 119.8C814 112.3 857 121.7 878.5 126.3L900 131L900 0L878.5 0C857 0 814 0 771.2 0C728.3 0 685.7 0 642.8 0C600 0 557 0 514.2 0C471.3 0 428.7 0 385.8 0C343 0 300 0 257.2 0C214.3 0 171.7 0 128.8 0C86 0 43 0 21.5 0L0 0Z" fill="#484f2c"></path><path d="M0 94L21.5 96.7C43 99.3 86 104.7 128.8 104.8C171.7 105 214.3 100 257.2 103C300 106 343 117 385.8 120C428.7 123 471.3 118 514.2 113.2C557 108.3 600 103.7 642.8 101.5C685.7 99.3 728.3 99.7 771.2 96.2C814 92.7 857 85.3 878.5 81.7L900 78L900 0L878.5 0C857 0 814 0 771.2 0C728.3 0 685.7 0 642.8 0C600 0 557 0 514.2 0C471.3 0 428.7 0 385.8 0C343 0 300 0 257.2 0C214.3 0 171.7 0 128.8 0C86 0 43 0 21.5 0L0 0Z" fill="#3c4521"></path><path d="M0 40L21.5 39.5C43 39 86 38 128.8 44.7C171.7 51.3 214.3 65.7 257.2 65.5C300 65.3 343 50.7 385.8 47.8C428.7 45 471.3 54 514.2 58.8C557 63.7 600 64.3 642.8 66.7C685.7 69 728.3 73 771.2 73.3C814 73.7 857 70.3 878.5 68.7L900 67L900 0L878.5 0C857 0 814 0 771.2 0C728.3 0 685.7 0 642.8 0C600 0 557 0 514.2 0C471.3 0 428.7 0 385.8 0C343 0 300 0 257.2 0C214.3 0 171.7 0 128.8 0C86 0 43 0 21.5 0L0 0Z" fill="#2f3c16"></path></svg>